<svg xmlns="http://www.w3.org/2000/svg" width="40" height="24" viewBox="0 0 40 24">
  <g id="razorpay" transform="translate(-3633 -1740)">
    <rect id="Rectangle_7" data-name="Rectangle 7" width="40" height="24" transform="translate(3633 1740)" fill="#fff"/>
    <g id="razorpay-2" data-name="razorpay" transform="translate(3634 1748)">
      <path id="Path_5" data-name="Path 5" d="M3.467,9.03,2.46,12.885H0l.5-1.9Z" transform="translate(0 -6.232)" fill="#072654"/>
      <path id="Path_6" data-name="Path 6" d="M20.195,5.08a1.585,1.585,0,0,1,1.212.387,1.137,1.137,0,0,1,.158,1.1,1.886,1.886,0,0,1-.493.868,2.01,2.01,0,0,1-.889.521.6.6,0,0,1,.465.555l.009.068.186,1.577H19.7l-.192-1.7a.372.372,0,0,0-.046-.161.357.357,0,0,0-.115-.121.716.716,0,0,0-.31-.077h-.772l-.539,2.054H16.65L17.982,5.08ZM49.566,6.409,48.2,8.374,46.595,10.7l-.012.012-.359.521-.012.019-.015.025-.31.446H44.819L46.065,9.97,45.5,6.533h1.106l.279,2.24,1.351-1.918.019-.028.022-.031.022-.028.167-.356h1.1Zm-9.444.273a1.14,1.14,0,0,1,.384.679,2.219,2.219,0,0,1-.065,1,2.956,2.956,0,0,1-.452.988,2.215,2.215,0,0,1-.728.66,1.836,1.836,0,0,1-.883.226,1.137,1.137,0,0,1-.626-.158.763.763,0,0,1-.319-.378l-.019-.062-.548,2.092H35.8L36.89,7.574l.006-.019,0-.019.266-1.007H38.2l-.177.583,0,.025a1.56,1.56,0,0,1,.592-.508,1.627,1.627,0,0,1,.759-.186,1.123,1.123,0,0,1,.747.239Zm-1.283.576a.934.934,0,0,0-.366.068.981.981,0,0,0-.31.2,1.642,1.642,0,0,0-.421.787,1.1,1.1,0,0,0,.006.784.544.544,0,0,0,.533.273.938.938,0,0,0,.675-.266,1.629,1.629,0,0,0,.412-.772,1.16,1.16,0,0,0-.009-.8.525.525,0,0,0-.521-.282ZM43.611,6.6a.794.794,0,0,1,.316.381l.022.059.136-.514h1.041l-.954,3.625H43.127l.139-.536A1.67,1.67,0,0,1,42,10.208a1.2,1.2,0,0,1-.768-.229,1.057,1.057,0,0,1-.384-.654,2.15,2.15,0,0,1,.059-.982,3.037,3.037,0,0,1,.462-.995,2.329,2.329,0,0,1,.737-.675,1.75,1.75,0,0,1,.877-.239,1.106,1.106,0,0,1,.626.167Zm-.539.666a.933.933,0,0,0-.369.074.978.978,0,0,0-.313.211,1.678,1.678,0,0,0-.421.79,1.069,1.069,0,0,0,.012.772.552.552,0,0,0,.542.27.934.934,0,0,0,.366-.068.947.947,0,0,0,.31-.2,1.673,1.673,0,0,0,.39-.688l.025-.1a1.068,1.068,0,0,0-.009-.784.547.547,0,0,0-.533-.276ZM36.63,6.49l.068.028-.266.988a1.038,1.038,0,0,0-.486-.121,1.076,1.076,0,0,0-.7.232,1.2,1.2,0,0,0-.366.564l-.022.084-.5,1.893H33.3l.961-3.625H35.3l-.136.533a1.55,1.55,0,0,1,.486-.434,1.377,1.377,0,0,1,.688-.183.707.707,0,0,1,.288.04Zm-3.914.174a1.073,1.073,0,0,1,.471.657,1.913,1.913,0,0,1-.034,1,2.636,2.636,0,0,1-.49,1,2.274,2.274,0,0,1-.818.657,2.4,2.4,0,0,1-1.038.226,1.722,1.722,0,0,1-.93-.226,1.082,1.082,0,0,1-.477-.657,1.98,1.98,0,0,1,.034-1,2.682,2.682,0,0,1,.49-1,2.3,2.3,0,0,1,.824-.657,2.411,2.411,0,0,1,1.05-.226,1.676,1.676,0,0,1,.917.226Zm-1.134.592a.964.964,0,0,0-.675.266,1.622,1.622,0,0,0-.421.8q-.279,1.064.539,1.063a.926.926,0,0,0,.666-.263,1.652,1.652,0,0,0,.415-.8,1.149,1.149,0,0,0,0-.8.526.526,0,0,0-.527-.266ZM29.429,6.53l-.186.719L26.9,9.316h1.878l-.223.846H25.45l.2-.747,2.3-2.036H26.2l.223-.846h3.009ZM24.183,6.6a.794.794,0,0,1,.316.381l.022.059.136-.514H25.7l-.951,3.625H23.705l.139-.536a1.683,1.683,0,0,1-.573.437,1.664,1.664,0,0,1-.7.155,1.19,1.19,0,0,1-.759-.229,1.057,1.057,0,0,1-.384-.654,2.15,2.15,0,0,1,.059-.982,2.975,2.975,0,0,1,.462-.995,2.352,2.352,0,0,1,.734-.675,1.747,1.747,0,0,1,.877-.235,1.129,1.129,0,0,1,.626.164Zm-.536.666a.945.945,0,0,0-.369.074.978.978,0,0,0-.313.211,1.651,1.651,0,0,0-.421.79,1.085,1.085,0,0,0,.012.772.552.552,0,0,0,.542.27.934.934,0,0,0,.366-.068.947.947,0,0,0,.31-.2,1.62,1.62,0,0,0,.39-.688l.025-.1a1.138,1.138,0,0,0-.009-.784.55.55,0,0,0-.533-.276ZM19.811,5.926h-.995l-.35,1.326h.995a1.357,1.357,0,0,0,.728-.161.809.809,0,0,0,.35-.505.471.471,0,0,0-.084-.5,1,1,0,0,0-.645-.158Z" transform="translate(-11.491 -3.506)" fill="#072654"/>
      <path id="Path_7" data-name="Path 7" d="M10.436,0,8.688,6.653h-1.2L8.67,2.147,6.86,3.34l.322-1.187Z" transform="translate(-4.734)" fill="#3395ff"/>
    </g>
  </g>
</svg>
